<svg width="922" height="1158" viewBox="0 0 922 1158" fill="none" xmlns="http://www.w3.org/2000/svg">
<path d="M728.6 435.185C734.333 440.651 747.4 453.185 757.667 463.185C767.933 473.051 791.667 495.851 810.333 513.851C829 531.851 851.533 553.451 860.333 561.985C869.133 570.385 879.533 580.385 883.533 583.985C895.667 595.051 909.933 615.851 915.267 629.851C921.133 645.585 921.667 648.785 921.533 669.851C921.533 687.851 921.133 691.585 918.467 698.518C906.6 730.118 888.067 752.651 861.267 767.718C844.6 777.051 831 780.385 809 780.385C790.2 780.518 778.067 778.385 765.667 773.185C763.533 772.251 759.533 770.518 757 769.451C748.333 765.851 736.333 757.451 726.2 747.585L716.067 737.718L704.6 749.051C694.467 759.051 691.133 761.318 678.067 767.718C669.8 771.718 661.533 775.318 659.667 775.585C657.8 775.985 652.2 777.318 647 778.385C632.467 781.718 616.333 780.785 594.333 775.451C587.133 773.718 570.333 765.985 563.667 761.451C551.933 753.318 537 737.585 530.467 726.518C517.933 705.185 515 693.985 515 667.185C515 643.718 515.933 639.185 524.333 621.185C531.533 605.718 542.6 591.318 560.6 573.851C568.467 566.118 603.8 531.585 639 496.918C714.2 423.185 714.333 423.051 716.467 424.251C717.4 424.785 722.867 429.718 728.6 435.185Z" fill="#142436"/>
<path d="M213.6 435.185C219.333 440.651 232.4 453.185 242.667 463.185C252.933 473.051 276.667 495.851 295.333 513.851C314 531.851 336.533 553.451 345.333 561.985C354.133 570.385 364.533 580.385 368.533 583.985C380.667 595.051 394.933 615.851 400.267 629.851C406.133 645.585 406.667 648.785 406.533 669.851C406.533 687.851 406.133 691.585 403.467 698.518C391.6 730.118 373.067 752.651 346.267 767.718C329.6 777.051 316 780.385 294 780.385C275.2 780.518 263.067 778.385 250.667 773.185C248.533 772.251 244.533 770.518 242 769.451C233.333 765.851 221.333 757.451 211.2 747.585L201.067 737.718L189.6 749.051C179.467 759.051 176.133 761.318 163.067 767.718C154.8 771.718 146.533 775.318 144.667 775.585C142.8 775.985 137.2 777.318 132 778.385C117.467 781.718 101.333 780.785 79.3334 775.451C72.1334 773.718 55.3334 765.985 48.6667 761.451C36.9334 753.318 22 737.585 15.4667 726.518C2.93334 705.185 0 693.985 0 667.185C0 643.718 0.933374 639.185 9.33337 621.185C16.5334 605.718 27.6 591.318 45.6 573.851C53.4667 566.118 88.8 531.585 124 496.918C199.2 423.185 199.333 423.051 201.467 424.251C202.4 424.785 207.867 429.718 213.6 435.185Z" fill="#142436"/>
<path d="M321.917 1.23486C354.45 6.43486 370.184 11.2349 394.45 23.6349C415.25 34.3016 427.784 43.5016 446.184 61.9016L460.317 75.9016L473.517 62.4349C480.717 54.9683 489.784 46.7016 493.384 44.0349C497.117 41.3682 500.317 38.8349 500.717 38.4349C503.784 34.7016 523.117 24.1682 542.717 15.6349C546.184 14.0349 559.784 9.76819 567.117 7.76819C589.65 1.90152 629.784 0.568262 651.65 4.96826C711.517 17.1016 759.784 52.0349 788.317 103.635C795.384 116.302 801.65 131.368 804.717 142.435C805.65 145.768 806.85 149.902 807.384 151.768C811.25 164.035 812.05 172.702 811.917 199.102C811.917 220.968 811.384 229.102 809.517 236.435C808.317 241.502 806.717 247.902 806.184 250.435C799.117 280.302 771.117 323.368 739.25 353.635C732.317 360.035 712.317 379.635 694.717 396.968C653.384 437.768 521.384 566.702 482.184 604.568C471.784 614.702 462.05 623.102 460.717 623.102C459.384 623.102 443.517 608.702 425.384 591.102C407.25 573.502 391.917 558.835 391.384 558.435C390.85 558.035 375.384 543.368 357.25 525.768C338.984 508.168 318.05 488.035 310.717 481.102C303.384 474.168 288.717 460.035 278.05 449.635C267.384 439.368 252.717 425.235 245.384 418.301C238.184 411.368 223.117 397.102 212.05 386.435C201.117 375.768 186.317 361.635 179.384 354.968C146.184 323.102 142.584 319.102 130.85 300.702C117.25 279.635 107.384 255.768 101.784 231.102C99.3837 220.035 99.3837 172.568 101.917 161.768C112.184 116.835 139.384 72.9683 174.05 44.9683C203.25 21.6349 233.917 7.90162 272.717 1.36829C283.117 -0.365047 311.384 -0.49847 321.917 1.23486Z" fill="#142436"/>
<path d="M476.97 691.501C476.97 691.901 478.97 695.367 481.503 699.234C483.903 702.967 489.37 711.901 493.636 718.834C497.903 725.767 504.436 736.301 508.036 742.167C511.636 748.034 515.77 754.567 516.97 756.834C518.303 758.967 522.703 766.567 527.103 773.501C544.303 801.767 552.036 814.301 554.303 818.167C555.636 820.301 560.703 828.701 565.636 836.834C570.703 844.834 577.236 855.634 580.303 860.834C583.37 865.901 590.036 876.701 594.97 884.834C614.57 916.567 622.703 932.301 626.436 946.167C626.97 948.301 628.57 954.034 629.77 958.834C632.836 970.034 633.236 1012.7 630.436 1024.83C628.036 1035.37 623.903 1049.23 621.636 1054.17C620.703 1056.43 619.236 1059.77 618.436 1061.77C617.77 1063.77 614.703 1069.37 611.636 1074.17C608.703 1079.1 606.303 1083.37 606.303 1083.77C606.303 1085.63 591.903 1102.17 582.036 1111.5C571.903 1121.37 554.703 1134.83 552.303 1134.83C551.77 1134.83 549.77 1135.9 547.903 1137.23C544.036 1139.9 526.97 1147.1 517.903 1150.03C512.57 1151.77 506.57 1153.1 490.57 1156.17C476.036 1158.97 444.303 1157.1 427.636 1152.3C410.97 1147.77 404.036 1145.1 393.37 1139.63C346.97 1115.9 315.37 1073.77 305.503 1022.83C303.37 1011.1 302.97 979.634 304.97 969.234C309.503 946.167 318.17 922.567 326.303 910.834C328.57 907.501 332.17 901.234 340.036 886.834C342.17 882.834 344.436 878.834 344.97 878.167C345.503 877.367 347.503 874.167 349.236 870.834C351.103 867.501 353.903 862.567 355.503 859.767C356.97 857.101 359.636 852.567 361.103 849.767C362.703 847.101 368.57 836.701 374.303 826.834C380.036 816.834 386.303 805.767 388.303 802.167C390.436 798.434 395.103 790.034 398.97 783.501C402.836 776.834 407.503 768.834 409.236 765.501C411.103 762.167 418.703 748.701 426.303 735.501C433.903 722.301 441.77 708.167 444.036 704.167C446.303 700.167 450.703 692.434 453.903 687.101C457.103 681.634 459.636 676.967 459.636 676.434C459.636 676.034 460.703 674.567 461.903 673.234C464.036 670.834 464.436 671.234 470.57 680.834C474.036 686.301 476.97 691.234 476.97 691.501Z" fill="#142436"/>
</svg>
