<svg width="829" height="786" viewBox="0 0 829 786" fill="none" xmlns="http://www.w3.org/2000/svg">
<path d="M793.43 442.267C790.167 439.104 659.686 313.888 652.5 306.5L632 334L597.605 371.157C597.605 371.157 540.823 430.92 534.65 437.956C520.523 453.853 510.785 464.52 505.274 478.468C498.844 494.7 496.485 501.488 496.872 522.489C497.312 546.416 502.618 556.074 512.959 574.892L513.033 575.027C518.447 584.835 530.664 598.695 540.195 605.8C545.608 609.76 559.189 616.433 564.984 617.877C582.69 622.327 595.626 622.924 607.209 619.727C611.356 618.696 615.818 617.42 617.307 617.035C618.797 616.768 625.358 613.425 631.913 609.723C642.271 603.803 644.903 601.725 652.854 592.626L661.85 582.315L670.127 590.996C678.404 599.676 688.153 607.017 695.153 610.111C697.199 611.029 700.431 612.521 702.155 613.325C712.171 617.796 721.922 619.526 736.976 619.13C754.594 618.806 765.43 615.622 778.624 607.024C799.838 593.145 814.308 572.706 823.294 544.252C825.31 538.008 827.149 534.765 826.852 518.656C826.618 499.801 824.552 496.841 819.601 482.846C815.094 470.396 803.329 451.992 793.43 442.267Z" fill="#142436"/>
<path d="M197.61 1.15374C226.491 6.01073 240.458 10.4942 261.999 22.0762C280.464 32.0393 291.591 40.6324 307.925 57.8187L320.471 70.8952L332.189 58.3168C338.581 51.3427 346.63 43.6213 349.825 41.1306C353.14 38.6397 355.981 36.2736 356.335 35.8999C359.058 32.4129 376.22 22.5743 393.62 14.6039C396.697 13.1094 408.771 9.12414 415.281 7.2561C435.284 1.77642 470.912 0.531104 490.323 4.64086C543.469 15.9738 586.316 48.6028 611.646 96.7994C617.919 108.63 623.482 122.703 626.205 133.04C627.033 136.153 628.098 140.014 628.572 141.758C632.004 153.215 632.715 161.31 632.596 185.968C632.596 206.393 632.123 213.989 630.466 220.839C629.4 225.571 627.98 231.55 627.506 233.916C621.233 261.812 596.377 302.038 568.088 330.308C561.933 336.286 544.179 354.593 528.554 370.783C491.862 408.891 376.299 532.131 341.5 567.5C332.117 577.036 322.184 590 321 590C319.816 590 305.558 568.55 289.46 552.111C273.363 535.672 259.751 521.973 259.277 521.599C258.804 521.225 245.074 507.526 228.976 491.087C212.761 474.648 194.178 455.843 187.668 449.367C181.158 442.89 168.137 429.69 158.668 419.976C149.199 410.386 136.179 397.185 129.669 390.709C123.278 384.234 109.903 370.907 100.078 360.944C90.3728 350.982 77.2342 337.781 71.0793 331.553C41.6068 301.789 38.411 298.053 27.995 280.866C15.922 261.19 7.16302 238.897 2.19175 215.857C0.0612071 205.521 0.0612055 161.186 2.31011 151.098C11.4241 109.128 35.5703 68.1554 66.3448 42.0023C92.2664 20.2082 119.49 7.38073 153.934 1.27835C163.166 -0.340642 188.259 -0.465263 197.61 1.15374Z" fill="#142436"/>
<path d="M447.179 529.935C451.844 524.567 442.939 544.136 450.834 560.292C453.052 564.832 453.62 567.998 461.093 582.296C471.041 601.33 483.895 614.965 486.991 619.341C499.259 636.397 503.051 639.933 507.393 648.163C509.707 653.121 510.33 655.594 511.574 660.539C513.192 666.967 514.824 685.755 514.024 692.826C513.346 698.964 511.934 707.095 511.008 710.031C510.639 711.374 510.048 713.354 509.736 714.537C509.495 715.714 508.179 719.073 506.818 721.975C505.536 724.946 504.5 727.508 504.523 727.736C504.63 728.801 497.895 739.003 493.167 744.855C488.327 751.025 479.924 759.627 478.644 759.755C478.359 759.783 477.353 760.499 476.434 761.36C474.525 763.087 465.834 768.107 461.167 770.265C458.421 771.539 455.298 772.621 446.941 775.225C439.35 777.599 422.319 778.23 413.156 776.383C404.008 774.687 400.159 773.537 394.158 770.988C368.055 759.929 348.793 737.582 340.619 709.053C338.811 702.474 337.311 686.799 337.783 680.759C338.883 667.358 343.61 653.16 357.135 632.986C370.66 612.811 447.179 529.935 447.179 529.935Z" fill="#142436"/>
</svg>
