<svg width="1021" height="967" viewBox="0 0 1021 967" fill="none" xmlns="http://www.w3.org/2000/svg">
<path d="M827.6 395.185C833.333 400.651 846.4 413.185 856.667 423.185C866.933 433.051 890.667 455.851 909.333 473.851C928 491.851 950.533 513.451 959.333 521.985C968.133 530.385 978.533 540.385 982.533 543.985C994.667 555.051 1008.93 575.851 1014.27 589.851C1020.13 605.585 1020.67 608.785 1020.53 629.851C1020.53 647.851 1020.13 651.585 1017.47 658.518C1005.6 690.118 987.067 712.651 960.267 727.718C943.6 737.051 930 740.385 908 740.385C889.2 740.518 877.067 738.385 864.667 733.185C862.533 732.251 858.533 730.518 856 729.451C847.333 725.851 835.333 717.451 825.2 707.585L815.067 697.718L803.6 709.051C793.467 719.051 790.133 721.318 777.067 727.718C768.8 731.718 760.533 735.318 758.667 735.585C756.8 735.985 751.2 737.318 746 738.385C731.467 741.718 715.333 740.785 693.333 735.451C686.133 733.718 669.333 725.985 662.667 721.451C650.933 713.318 636 697.585 629.467 686.518C616.933 665.185 614 653.985 614 627.185C614 603.718 614.933 599.185 623.333 581.185C630.533 565.718 641.6 551.318 659.6 533.851C667.467 526.118 702.8 491.585 738 456.918C813.2 383.185 813.333 383.051 815.467 384.251C816.4 384.785 821.867 389.718 827.6 395.185Z" fill="#142436"/>
<path d="M249.993 1.39162C286.642 7.25005 304.366 12.6579 331.702 26.628C355.134 38.6453 369.253 49.0102 389.981 69.7401L405.902 85.5128L420.772 70.3409C428.883 61.9288 439.097 52.6154 443.152 49.6111C447.358 46.6067 450.963 43.7527 451.413 43.302C454.868 39.096 476.647 27.2288 498.727 17.615C502.632 15.8124 517.953 11.0054 526.214 8.7522C551.598 2.14269 596.809 0.640609 621.442 5.59774C688.883 19.2674 743.256 58.624 775.399 116.758C783.36 131.028 790.419 148.003 793.874 160.471C794.925 164.226 796.277 168.883 796.878 170.986C801.234 184.806 802.135 194.57 801.985 224.312C801.985 248.948 801.384 258.111 799.281 266.373C797.929 272.081 796.127 279.292 795.526 282.146C787.565 315.794 756.023 364.314 720.125 398.413C712.314 405.623 689.784 427.705 669.957 447.233C623.395 493.199 474.695 638.459 430.535 681.12C418.82 692.536 407.855 702 406.353 702C404.851 702 386.977 685.777 366.549 665.948C346.122 646.12 328.849 629.596 328.248 629.145C327.647 628.694 310.224 612.171 289.796 592.342C269.219 572.514 245.637 549.831 237.376 542.02C229.115 534.208 212.592 518.286 200.576 506.569C188.56 495.002 172.038 479.079 163.777 471.268C155.666 463.457 138.693 447.383 126.226 435.366C113.91 423.349 97.2373 407.426 89.4268 399.915C52.0265 364.013 47.9711 359.507 34.7533 338.777C19.4328 315.043 8.31781 288.154 2.00933 260.364C-0.694302 247.896 -0.694304 194.42 2.15953 182.252C13.7251 131.629 44.3663 82.208 83.4188 50.6626C116.313 24.3748 150.859 8.90253 194.568 1.54193C206.284 -0.410878 238.127 -0.561195 249.993 1.39162Z" fill="#142436"/>
<path d="M564.098 666.31C555.583 643.278 568.451 625.77 561.392 632.43C561.392 632.43 430.412 761.322 417.863 782.869C411.059 794.55 405.447 804.659 402.133 822.722C400.671 830.866 400.574 852.373 402.133 861.561C409.345 901.446 432.441 934.441 466.354 953.026C474.15 957.307 479.217 959.395 491.399 962.945C503.58 966.704 526.774 968.166 537.396 965.973C549.09 963.572 553.475 962.528 557.373 961.17C564 958.873 576.474 953.235 579.3 951.147C580.664 950.103 582.126 949.267 582.516 949.267C584.27 949.267 596.841 938.722 604.248 930.995C611.459 923.686 621.984 910.739 621.984 909.277C621.984 908.964 623.738 905.623 625.882 901.76C628.123 898.001 630.365 893.615 630.852 892.049C631.437 890.483 632.508 887.873 633.191 886.098C634.847 882.234 637.868 871.376 639.622 863.127C641.669 853.626 641.377 820.214 639.135 811.443C638.258 807.684 637.089 803.194 636.699 801.524C633.97 790.665 628.026 778.344 613.7 753.494C610.095 747.125 605.222 738.668 602.981 734.7C600.739 730.628 595.964 722.17 592.261 715.906C588.655 709.536 584.952 702.958 583.978 701.288C582.321 698.26 566.49 672.782 564.098 666.31Z" fill="#142436"/>
</svg>
