<svg width="828" height="1050" viewBox="0 0 828 1050" fill="none" xmlns="http://www.w3.org/2000/svg">
<path d="M345.206 660.6C339.739 666.333 327.206 679.4 317.206 689.667C307.339 699.933 284.539 723.667 266.539 742.333C248.539 761 226.939 783.533 218.406 792.333C210.006 801.133 200.006 811.533 196.406 815.533C185.339 827.667 164.539 841.933 150.539 847.267C134.806 853.133 131.606 853.667 110.539 853.533C92.5392 853.533 88.8059 853.133 81.8726 850.467C50.2726 838.6 27.7392 820.067 12.6725 793.267C3.33922 776.6 0.00586212 763 0.00586212 741C-0.127471 722.2 2.00587 710.067 7.20587 697.667C8.13921 695.533 9.87255 691.533 10.9392 689C14.5392 680.333 22.9392 668.333 32.8059 658.2L42.6726 648.067L31.3392 636.6C21.3392 626.467 19.0725 623.133 12.6725 610.067C8.67255 601.8 5.07258 593.533 4.80591 591.667C4.40591 589.8 3.07253 584.2 2.00586 579C-1.32747 564.467 -0.394121 548.333 4.93921 526.333C6.67255 519.133 14.4059 502.333 18.9392 495.667C27.0725 483.933 42.8059 469 53.8726 462.467C75.2059 449.933 86.4059 447 113.206 447C136.673 447 141.206 447.933 159.206 456.333C174.673 463.533 189.073 474.6 206.539 492.6C214.273 500.467 248.806 535.8 283.473 571C357.206 646.2 357.339 646.333 356.139 648.467C355.606 649.4 350.673 654.867 345.206 660.6Z" fill="#142436"/>
<path d="M482.185 660.6C487.651 666.333 500.185 679.4 510.185 689.667C520.051 699.933 542.851 723.667 560.851 742.333C578.851 761 600.451 783.533 608.985 792.333C617.385 801.133 627.385 811.533 630.985 815.533C642.051 827.667 662.851 841.933 676.851 847.267C692.585 853.133 695.785 853.667 716.851 853.533C734.851 853.533 738.585 853.133 745.518 850.467C777.118 838.6 799.651 820.067 814.718 793.267C824.051 776.6 827.385 763 827.385 741C827.518 722.2 825.385 710.067 820.185 697.667C819.251 695.533 817.518 691.533 816.451 689C812.851 680.333 804.451 668.333 794.585 658.2L784.718 648.067L796.051 636.6C806.051 626.467 808.318 623.133 814.718 610.067C818.718 601.8 822.318 593.533 822.585 591.667C822.985 589.8 824.318 584.2 825.385 579C828.718 564.467 827.785 548.333 822.451 526.333C820.718 519.133 812.985 502.333 808.451 495.667C800.318 483.933 784.585 469 773.518 462.467C752.185 449.933 740.985 447 714.185 447C690.718 447 686.185 447.933 668.185 456.333C652.718 463.533 638.318 474.6 620.851 492.6C613.118 500.467 578.585 535.8 543.918 571C470.185 646.2 470.051 646.333 471.251 648.467C471.785 649.4 476.718 654.867 482.185 660.6Z" fill="#142436"/>
<path d="M278.916 1.23486C311.45 6.43486 327.183 11.2349 351.45 23.6349C372.25 34.3016 384.783 43.5016 403.183 61.9016L417.316 75.9016L430.516 62.4349C437.716 54.9683 446.783 46.7016 450.383 44.0349C454.116 41.3682 457.316 38.8349 457.716 38.4349C460.783 34.7016 480.116 24.1682 499.716 15.6349C503.183 14.0349 516.783 9.76819 524.116 7.76819C546.65 1.90152 586.783 0.568262 608.65 4.96826C668.516 17.1016 716.783 52.0349 745.316 103.635C752.383 116.302 758.65 131.368 761.716 142.435C762.65 145.768 763.85 149.902 764.383 151.768C768.25 164.035 769.05 172.702 768.916 199.102C768.916 220.968 768.383 229.102 766.516 236.435C765.316 241.502 763.716 247.902 763.183 250.435C756.116 280.302 728.116 323.368 696.25 353.635C689.316 360.035 669.316 379.635 651.716 396.968C610.383 437.768 478.383 566.702 439.183 604.568C428.783 614.702 419.05 623.102 417.716 623.102C416.383 623.102 400.516 608.702 382.383 591.102C364.25 573.502 348.916 558.835 348.383 558.435C347.85 558.035 332.383 543.368 314.25 525.768C295.983 508.168 275.05 488.035 267.716 481.102C260.383 474.168 245.716 460.035 235.05 449.635C224.383 439.368 209.716 425.235 202.383 418.301C195.183 411.368 180.116 397.102 169.05 386.435C158.116 375.768 143.316 361.635 136.383 354.968C103.183 323.102 99.5829 319.102 87.8496 300.702C74.2496 279.635 64.3829 255.768 58.7829 231.102C56.3829 220.035 56.3829 172.568 58.9163 161.768C69.1829 116.835 96.3829 72.9683 131.05 44.9683C160.25 21.6349 190.916 7.90162 229.716 1.36829C240.116 -0.365047 268.383 -0.49847 278.916 1.23486Z" fill="#142436"/>
<path d="M421.66 675.432C421.658 675.753 423.253 678.543 425.275 681.656C427.191 684.662 431.552 691.854 434.956 697.435C438.36 703.016 443.574 711.496 446.446 716.219C449.318 720.941 452.617 726.201 453.573 728.025C454.637 729.742 458.145 735.859 461.657 741.441C475.378 764.195 481.549 774.285 483.356 777.397C484.42 779.114 488.462 785.876 492.398 792.423C496.441 798.863 501.653 807.557 504.099 811.742C506.545 815.821 511.864 824.515 515.8 831.062C531.438 856.608 537.916 869.266 540.86 880.407C541.279 882.121 542.542 886.728 543.486 890.584C545.905 899.582 546.033 933.811 543.724 943.532C541.744 951.971 538.352 963.076 536.505 967.023C535.743 968.838 534.547 971.505 533.894 973.106C533.348 974.707 530.853 979.185 528.362 983.022C525.977 986.966 524.026 990.378 524.024 990.699C524.015 992.196 512.345 1005.39 504.358 1012.84C496.154 1020.71 482.243 1031.43 480.31 1031.42C479.881 1031.42 478.265 1032.26 476.756 1033.32C473.631 1035.45 459.855 1041.14 452.541 1043.46C448.239 1044.82 443.402 1045.86 430.504 1048.25C418.789 1050.43 393.245 1048.79 379.846 1044.86C366.446 1041.15 360.875 1038.98 352.311 1034.55C315.056 1015.3 289.802 981.353 282.088 940.449C280.424 931.027 280.244 905.782 281.902 897.448C285.657 878.965 292.742 860.072 299.345 850.697C301.185 848.033 304.112 843.022 310.512 831.506C312.248 828.307 314.091 825.109 314.524 824.576C314.957 823.937 316.582 821.379 317.993 818.713C319.511 816.047 321.788 812.103 323.089 809.864C324.282 807.731 326.45 804.107 327.643 801.867C328.944 799.735 333.715 791.419 338.376 783.53C343.038 775.534 348.135 766.685 349.761 763.806C351.496 760.821 355.292 754.103 358.435 748.88C361.579 743.55 365.373 737.153 366.784 734.487C368.302 731.822 374.483 721.053 380.662 710.499C386.842 699.944 393.24 688.642 395.084 685.443C396.927 682.245 400.505 676.061 403.106 671.797C405.707 667.427 407.768 663.695 407.771 663.267C407.773 662.946 408.638 661.774 409.611 660.71C411.339 658.794 411.66 659.117 416.555 666.846C419.321 671.247 421.661 675.218 421.66 675.432Z" fill="#142436"/>
</svg>
