<svg width="712" height="1442" viewBox="0 0 712 1442" fill="none" xmlns="http://www.w3.org/2000/svg">
<path d="M366.6 11.1848C372.334 16.6514 385.4 29.1848 395.667 39.1848C405.934 49.0514 429.667 71.8514 448.334 89.8514C467 107.851 489.534 129.451 498.334 137.985C507.134 146.385 517.534 156.385 521.534 159.985C533.667 171.051 547.934 191.851 553.267 205.851C559.134 221.585 559.667 224.785 559.534 245.851C559.534 263.851 559.134 267.585 556.467 274.518C544.6 306.118 526.067 328.651 499.267 343.718C482.6 353.051 469 356.385 447 356.385C428.2 356.518 416.067 354.385 403.667 349.185C401.534 348.251 397.534 346.518 395 345.451C386.334 341.851 374.334 333.451 364.2 323.585L354.067 313.718L342.601 325.051C332.467 335.051 329.134 337.318 316.067 343.718C307.801 347.718 299.534 351.318 297.667 351.585C295.801 351.985 290.2 353.318 285 354.385C270.467 357.718 254.334 356.785 232.334 351.451C225.134 349.718 208.334 341.985 201.667 337.451C189.934 329.318 175 313.585 168.467 302.518C155.934 281.185 153 269.985 153 243.185C153 219.718 153.934 215.185 162.334 197.185C169.534 181.718 180.601 167.318 198.601 149.851C206.467 142.118 241.8 107.585 277 72.918C352.2 -0.8153 352.334 -0.948596 354.467 0.251404C355.4 0.784737 360.867 5.71809 366.6 11.1848Z" fill="#142436"/>
<path d="M221.917 393.235C254.45 398.435 270.184 403.235 294.45 415.635C315.25 426.302 327.784 435.502 346.184 453.902L360.317 467.902L373.517 454.435C380.717 446.968 389.784 438.702 393.384 436.035C397.117 433.368 400.317 430.835 400.717 430.435C403.784 426.702 423.117 416.168 442.717 407.635C446.184 406.035 459.784 401.768 467.117 399.768C489.65 393.902 529.784 392.568 551.65 396.968C611.517 409.102 659.784 444.035 688.317 495.635C695.384 508.302 701.65 523.368 704.717 534.435C705.65 537.768 706.85 541.902 707.384 543.768C711.25 556.035 712.05 564.702 711.917 591.102C711.917 612.968 711.384 621.102 709.517 628.435C708.317 633.502 706.717 639.902 706.184 642.435C699.117 672.302 671.117 715.368 639.25 745.635C632.317 752.035 612.317 771.635 594.717 788.968C553.384 829.768 421.384 958.702 382.184 996.568C371.784 1006.7 362.05 1015.1 360.717 1015.1C359.384 1015.1 343.517 1000.7 325.384 983.102C307.25 965.502 291.917 950.835 291.384 950.435C290.85 950.035 275.384 935.368 257.25 917.768C238.984 900.168 218.05 880.035 210.717 873.102C203.384 866.168 188.717 852.035 178.05 841.635C167.384 831.368 152.717 817.235 145.384 810.301C138.184 803.368 123.117 789.102 112.05 778.435C101.117 767.768 86.317 753.635 79.3836 746.968C46.1836 715.102 42.5837 711.102 30.8503 692.702C17.2503 671.635 7.38367 647.768 1.78367 623.102C-0.616328 612.035 -0.61633 564.568 1.917 553.768C12.1837 508.835 39.3837 464.968 74.0503 436.968C103.25 413.635 133.917 399.902 172.717 393.368C183.117 391.635 211.384 391.502 221.917 393.235Z" fill="#142436"/>
<path d="M364.661 1067.43C364.659 1067.75 366.254 1070.54 368.276 1073.66C370.192 1076.66 374.553 1083.85 377.957 1089.43C381.361 1095.02 386.575 1103.5 389.447 1108.22C392.319 1112.94 395.618 1118.2 396.574 1120.02C397.638 1121.74 401.146 1127.86 404.658 1133.44C418.379 1156.2 424.55 1166.28 426.357 1169.4C427.421 1171.11 431.463 1177.88 435.398 1184.42C439.442 1190.86 444.654 1199.56 447.1 1203.74C449.546 1207.82 454.865 1216.52 458.801 1223.06C474.439 1248.61 480.917 1261.27 483.861 1272.41C484.28 1274.12 485.543 1278.73 486.487 1282.58C488.906 1291.58 489.034 1325.81 486.725 1335.53C484.744 1343.97 481.353 1355.08 479.506 1359.02C478.744 1360.84 477.548 1363.5 476.895 1365.11C476.349 1366.71 473.854 1371.19 471.363 1375.02C468.978 1378.97 467.027 1382.38 467.025 1382.7C467.016 1384.2 455.346 1397.39 447.359 1404.84C439.155 1412.71 425.244 1423.43 423.311 1423.42C422.882 1423.42 421.266 1424.26 419.757 1425.32C416.632 1427.45 402.856 1433.14 395.542 1435.46C391.24 1436.82 386.403 1437.86 373.505 1440.25C361.79 1442.43 336.246 1440.79 322.847 1436.86C309.447 1433.15 303.876 1430.98 295.312 1426.55C258.057 1407.3 232.803 1373.35 225.089 1332.45C223.425 1323.03 223.245 1297.78 224.903 1289.45C228.658 1270.96 235.743 1252.07 242.346 1242.7C244.186 1240.03 247.113 1235.02 253.513 1223.51C255.249 1220.31 257.092 1217.11 257.525 1216.58C257.958 1215.94 259.583 1213.38 260.994 1210.71C262.512 1208.05 264.789 1204.1 266.09 1201.86C267.283 1199.73 269.451 1196.11 270.644 1193.87C271.945 1191.74 276.716 1183.42 281.377 1175.53C286.039 1167.53 291.136 1158.68 292.762 1155.81C294.497 1152.82 298.293 1146.1 301.436 1140.88C304.58 1135.55 308.374 1129.15 309.785 1126.49C311.303 1123.82 317.484 1113.05 323.663 1102.5C329.843 1091.94 336.241 1080.64 338.085 1077.44C339.928 1074.24 343.506 1068.06 346.107 1063.8C348.708 1059.43 350.769 1055.69 350.772 1055.27C350.774 1054.95 351.639 1053.77 352.611 1052.71C354.34 1050.79 354.66 1051.12 359.556 1058.85C362.322 1063.25 364.662 1067.22 364.661 1067.43Z" fill="#142436"/>
</svg>
